<?xml version="1.0" encoding="UTF-8"?>
<svg width="227px" height="228px" viewBox="0 0 227 228" version="1.1" xmlns="http://www.w3.org/2000/svg" xmlns:xlink="http://www.w3.org/1999/xlink">
    <!-- Generator: Sketch 40.3 (33839) - http://www.bohemiancoding.com/sketch -->
    <title>segments</title>
    <desc>Created with Sketch.</desc>
    <defs></defs>
    <g id="Tactical-Overview" stroke="none" stroke-width="1" fill="none" fill-rule="evenodd">
        <g id="tactical-overview-layout-one-col" transform="translate(-613.000000, -63.000000)">
            <g id="dummy-donut-graph" transform="translate(567.000000, 17.000000)">
                <g id="segments">
                    <path d="M86.9558011,160 C86.9558011,200.341197 119.658803,233.044199 160,233.044199 C200.341197,233.044199 233.044199,200.341197 233.044199,160 C233.044199,119.658803 200.341197,86.9558011 160,86.9558011 C119.658803,86.9558011 86.9558011,119.658803 86.9558011,160 Z M273,160 C273,222.408177 222.408177,273 160,273 C97.5918233,273 47,222.408177 47,160 C47,97.5918233 97.5918233,47 160,47 C222.408177,47 273,97.5918233 273,160 Z" id="Oval-Copy-5" fill="#FF99AA"></path>
                    <path d="M231.344399,144.222136 C232.469928,149.347453 233.044199,154.62284 233.044199,160 C233.044199,200.341197 200.341197,233.044199 160,233.044199 C119.658803,233.044199 86.9558011,200.341197 86.9558011,160 C86.9558011,119.658803 119.658803,86.9558011 160,86.9558011 L160,47 C97.5918233,47 47,97.5918233 47,160 C47,222.408177 97.5918233,273 160,273 C222.408177,273 273,222.408177 273,160 C273,151.640946 272.092364,143.493881 270.370269,135.651983 L231.344399,144.222136 Z" id="Oval-Copy-6" fill="#FF5566" transform="translate(160.000000, 160.000000) rotate(-45.000000) translate(-160.000000, -160.000000) "></path>
                    <path d="M217.408534,205.17084 C203.605895,222.675595 182.697482,233.044199 160,233.044199 C119.658803,233.044199 86.9558011,200.341197 86.9558011,160 C86.9558011,119.658803 119.658803,86.9558011 160,86.9558011 L160,47 C97.5918233,47 47,97.5918233 47,160 C47,222.408177 97.5918233,273 160,273 C196.013068,273 228.091354,256.153194 248.783884,229.910553 L217.408534,205.17084 Z" id="Oval-Copy-8" fill="#FFCC65"></path>
                    <path d="M160,86.9376865 C127.731039,86.9172922 98.1932133,108.444956 89.4447218,141.09477 C79.0036517,180.061374 102.128166,220.114208 141.09477,230.555278 C163.018854,236.429819 185.898422,231.826012 203.761312,218.490103 L227.664464,250.507369 C200.884919,270.500192 165.5394,278.470486 130.753448,269.149618 C70.4717782,252.997194 34.6979569,191.035118 50.8503816,130.753448 C64.3843726,80.2439058 110.079642,46.9404265 160,46.9719765 L160,86.9376865 Z" id="Combined-Shape" fill="#FFAA44"></path>
                    <path d="M160.028046,86.9657324 C127.759085,86.9453381 98.2212591,108.473002 89.4727677,141.122816 C79.0316976,180.08942 102.156212,220.142254 141.122816,230.583324 C143.564979,231.2377 146.018304,231.763628 148.47782,232.162159 L142.086884,271.603533 C138.319581,270.993093 134.547258,270.186698 130.781494,269.177664 C70.4998241,253.02524 34.7260028,191.063163 50.8784275,130.781494 C64.6323806,79.4510419 111.601514,45.8904831 162.465276,47.0280459 L160.028046,47.0280459 L160.028046,86.9657324 Z" id="Combined-Shape" fill="#44BB77"></path>
                    <path d="M159.989734,86.9558014 C141.299516,86.9584117 122.610108,94.0897949 108.349952,108.349951 C79.8244176,136.875485 79.8244176,183.124514 108.349952,211.650048 C110.137739,213.437835 111.999417,215.119965 113.930155,216.694861 L88.6747544,247.656624 C85.7173945,245.244316 82.8536648,242.659797 80.0969337,239.903066 C35.9676888,195.773821 35.9676888,124.226178 80.0969337,80.0969333 C102.158945,58.0349216 131.073935,47.0026105 159.989734,47 L159.989734,86.9558014 L159.989734,86.9558014 Z" id="Combined-Shape" fill="#77AAFF"></path>
                </g>
            </g>
        </g>
    </g>
</svg>